# xmcd CD database file
#
# Track frame offsets:
#	150
#	15279
#	30153
#	49759
#	68287
#	83883
#	98368
#	112824
#	125233
#	142560
#	156958
#	169840
#	185004
#	200505
#
# Disc length: 2817 seconds
#
# Revision: 2
# Processed by: cddbd v1.4b41PL1 Copyright (c) Steve Scherf et al.
# Submitted via: Feurio! 1.50.2ß - http://www.feurio.com
#
DISCID=a00aff0e
DTITLE=Stefanie Hertel - Herz an Herz
DYEAR=1900
DGENRE=
TTITLE0=Mambofieber
TTITLE1=Irgendwo schlägt ein Herz für dich
TTITLE2=Daheim ist immer da,wo du bist
TTITLE3=Die Kraft der Träume
TTITLE4=Streich' den Himmel einfach blau
TTITLE5=Das hat der Himmel gut gemacht
TTITLE6=Ein Lied für jeden Sonnenstrahl
TTITLE7=Mein Märchen Prinz sieht aus wie Du
TTITLE8=Du bist mein kleines Geheimnis
TTITLE9=Und dann brauch Ich dir nur in den Augen zu seh'n
TTITLE10=Mit einem Koffer voller Sonnenschein
TTITLE11=Nimm mich mit in die Berge
TTITLE12=Mach ein Fest aus deinem Leben
TTITLE13=Guten Abend,gute Nacht
EXTD=
EXTT0=
EXTT1=
EXTT2=
EXTT3=
EXTT4=
EXTT5=
EXTT6=
EXTT7=
EXTT8=
EXTT9=
EXTT10=
EXTT11=
EXTT12=
EXTT13=
PLAYORDER=
